# xmcd CD database file
#
# Track frame offsets:
#	150
#	22979
#	36577
#	57277
#	86748
#	102132
#	126647
#	139020
#	169529
#	189276
#	213909
#	232392
#	257554
#	282782
#
# Disc length: 3995 seconds
#
# Revision: 0
# Processed by: cddbd v1.5.1PL0 Copyright (c) Steve Scherf et al.
# Submitted via: CDex 1.51
#
DISCID=c80f990e
DTITLE=Hector Lavoe - La Experiencia
DYEAR=2004
DGENRE=Salsa
TTITLE0=Mujer Sincera
TTITLE1=Emborrachame de Amor
TTITLE2=Paraiso de dulzura
TTITLE3=Rompe Saraguey
TTITLE4=Un amor de la calle
TTITLE5=Mi Gente
TTITLE6=Consejo de oro
TTITLE7=Periodico de Ayer
TTITLE8=El Todopoderoso
TTITLE9=El dia de mi suerte
TTITLE10=Soñando Despierto
TTITLE11=Hacha y Machete
TTITLE12=La Murga
TTITLE13=Calle Luna, Calle Sol
EXTD=YEAR: 2004
EXTT0=
EXTT1=
EXTT2=
EXTT3=
EXTT4=
EXTT5=
EXTT6=
EXTT7=
EXTT8=
EXTT9=
EXTT10=
EXTT11=
EXTT12=
EXTT13=
PLAYORDER=
